# xmcd CD database file
#
# Track frame offsets:
#	150
#	26497
#	59225
#	81787
#	118336
#	156922
#	184604
#	218073
#	256599
#	285926
#	315717
#
# Disc length: 4766 seconds
#
# Revision: 1
# Processed by: cddbd v1.5.2PL0 Copyright (c) Steve Scherf et al.
# Submitted via: CDex 1.70beta2
#
DISCID=96129c0b
DTITLE=Various Artist - BMC Jazz Sampler 2008
DYEAR=2008
DGENRE=Jazz
TTITLE0=Gábor Gadó - Mirandola
TTITLE1=Mihály Dresch Quartet - Árgyélus
TTITLE2=Grupa Palotai - Bruyantes solitrudes
TTITLE3=Alban Darche - Noveus
TTITLE4=Szakcsi Generation with Jack DeJonette and John Patitucci - Little Gipsy Song for You
TTITLE5=Viktot Tóth - Március
TTITLE6=Monio Mania: Muskrat Ramble
TTITLE7=Kálmán Oláh -  Kristóf Bcsó - Sébastien Boisseau - Bartók Impressions
TTITLE8=Unit - Massilia - Tribute to Ed Blackwell
TTITLE9=Plastic Septet: Mostly Harmless
TTITLE10=Gábor Winand with the Gábor Gadó Quintet - All Souls
EXTD=YEAR: 2008
EXTT0=
EXTT1=
EXTT2=
EXTT3=
EXTT4=
EXTT5=
EXTT6=
EXTT7=
EXTT8=
EXTT9=
EXTT10=
PLAYORDER=
